<svg width="36" height="26" viewBox="0 0 36 26" fill="none" xmlns="http://www.w3.org/2000/svg">
<rect x="0.5" y="0.5" width="35" height="25" rx="5.5" fill="white"/>
<rect x="0.5" y="0.5" width="35" height="25" rx="5.5" stroke="#C6C6C7"/>
<path fill-rule="evenodd" clip-rule="evenodd" d="M18.9955 12.0045L18.9955 7.6904C18.9955 7.14058 18.5498 6.69486 18 6.69486C17.4501 6.69486 17.0044 7.14058 17.0044 7.69041L17.0044 12.0045L12.6904 12.0045C12.1405 12.0045 11.6948 12.4502 11.6948 13C11.6948 13.5498 12.1405 13.9955 12.6904 13.9955L17.0044 13.9955L17.0044 18.3096C17.0044 18.8594 17.4501 19.3051 18 19.3051C18.5498 19.3051 18.9955 18.8594 18.9955 18.3096L18.9955 13.9955L23.3096 13.9955C23.8594 13.9955 24.3051 13.5498 24.3051 13C24.3051 12.4502 23.8594 12.0045 23.3096 12.0045L18.9955 12.0045Z" fill="#454747"/>
<path d="M18.9955 7.6904L19.4955 7.6904L19.4955 7.6904L18.9955 7.6904ZM18.9955 12.0045L18.4955 12.0045L18.4955 12.5045L18.9955 12.5045L18.9955 12.0045ZM18 6.69486L18 6.19486L18 6.19486L18 6.69486ZM17.0044 7.69041L17.5044 7.69041L17.5044 7.6904L17.0044 7.69041ZM17.0044 12.0045L17.0044 12.5045L17.5044 12.5045L17.5044 12.0045L17.0044 12.0045ZM12.6904 12.0045L12.6904 12.5045L12.6904 12.5045L12.6904 12.0045ZM11.6948 13L12.1948 13V13L11.6948 13ZM12.6904 13.9955L12.6904 13.4955L12.6904 13.4955L12.6904 13.9955ZM17.0044 13.9955L17.5044 13.9955L17.5044 13.4955L17.0044 13.4955L17.0044 13.9955ZM17.0044 18.3096L17.5044 18.3096L17.5044 18.3096L17.0044 18.3096ZM18 19.3051L18 19.8051L18 19.8051L18 19.3051ZM18.9955 18.3096L19.4955 18.3096L19.4955 18.3096L18.9955 18.3096ZM18.9955 13.9955L18.9955 13.4955L18.4955 13.4955L18.4955 13.9955L18.9955 13.9955ZM23.3096 13.9955L23.3096 14.4955L23.3096 14.4955L23.3096 13.9955ZM24.3051 13L24.8051 13L24.8051 13L24.3051 13ZM23.3096 12.0045L23.3096 11.5045L23.3096 11.5045L23.3096 12.0045ZM18.4955 7.6904L18.4955 12.0045L19.4955 12.0045L19.4955 7.6904L18.4955 7.6904ZM18 7.19486C18.2737 7.19486 18.4955 7.41672 18.4955 7.69041L19.4955 7.6904C19.4955 6.86444 18.8259 6.19486 18 6.19486L18 7.19486ZM17.5044 7.6904C17.5044 7.41672 17.7263 7.19486 18 7.19486L18 6.19486C17.174 6.19486 16.5044 6.86444 16.5044 7.69041L17.5044 7.6904ZM17.5044 12.0045L17.5044 7.69041L16.5044 7.69041L16.5044 12.0045L17.5044 12.0045ZM12.6904 12.5045L17.0044 12.5045L17.0044 11.5045L12.6904 11.5045L12.6904 12.5045ZM12.1948 13C12.1948 12.7263 12.4167 12.5045 12.6904 12.5045L12.6904 11.5045C11.8644 11.5045 11.1948 12.174 11.1948 13L12.1948 13ZM12.6904 13.4955C12.4167 13.4955 12.1948 13.2737 12.1948 13L11.1948 13C11.1948 13.826 11.8644 14.4955 12.6904 14.4955L12.6904 13.4955ZM17.0044 13.4955L12.6904 13.4955L12.6904 14.4955L17.0044 14.4955L17.0044 13.4955ZM17.5044 18.3096L17.5044 13.9955L16.5044 13.9955L16.5044 18.3096L17.5044 18.3096ZM18 18.8051C17.7263 18.8051 17.5044 18.5833 17.5044 18.3096L16.5044 18.3096C16.5044 19.1356 17.174 19.8051 18 19.8051L18 18.8051ZM18.4955 18.3096C18.4955 18.5833 18.2737 18.8051 18 18.8051L18 19.8051C18.8259 19.8051 19.4955 19.1356 19.4955 18.3096L18.4955 18.3096ZM18.4955 13.9955L18.4955 18.3096L19.4955 18.3096L19.4955 13.9955L18.4955 13.9955ZM23.3096 13.4955L18.9955 13.4955L18.9955 14.4955L23.3096 14.4955L23.3096 13.4955ZM23.8051 13C23.8051 13.2737 23.5832 13.4955 23.3096 13.4955L23.3096 14.4955C24.1355 14.4955 24.8051 13.826 24.8051 13L23.8051 13ZM23.3096 12.5045C23.5832 12.5045 23.8051 12.7263 23.8051 13L24.8051 13C24.8051 12.174 24.1355 11.5045 23.3096 11.5045L23.3096 12.5045ZM18.9955 12.5045L23.3096 12.5045L23.3096 11.5045L18.9955 11.5045L18.9955 12.5045Z" fill="#454747"/>
</svg>
