<svg width="68" height="26" viewBox="0 0 68 26" fill="none" xmlns="http://www.w3.org/2000/svg">
<rect x="0.5" y="0.5" width="67" height="25" rx="5.5" fill="#FCFCFC"/>
<rect x="0.5" y="0.5" width="67" height="25" rx="5.5" stroke="#E2E2E2"/>
<path d="M0 10.6C0 7.23969 0 5.55953 0.653961 4.27606C1.2292 3.14708 2.14708 2.2292 3.27606 1.65396C4.55953 1 6.23969 1 9.6 1H26.4C29.7603 1 31.4405 1 32.7239 1.65396C33.8529 2.2292 34.7708 3.14708 35.346 4.27606C36 5.55953 36 7.23969 36 10.6V15.4C36 18.7603 36 20.4405 35.346 21.7239C34.7708 22.8529 33.8529 23.7708 32.7239 24.346C31.4405 25 29.7603 25 26.4 25H9.6C6.23968 25 4.55953 25 3.27606 24.346C2.14708 23.7708 1.2292 22.8529 0.653961 21.7239C0 20.4405 0 18.7603 0 15.4V10.6Z" fill="#C6C6C7"/>
<path d="M26 19C26 20.1046 25.1046 21 24 21L12 21C10.8954 21 10 20.1046 10 19L10 17.1053C10 16.0007 10.8954 15.1053 12 15.1053L24 15.1053C25.1046 15.1053 26 16.0007 26 17.1053L26 19ZM26 11.4211C26 12.5256 25.1046 13.4211 24 13.4211L12 13.4211C10.8954 13.4211 10 12.5256 10 11.4211L10 7C10 5.89543 10.8954 5 12 5L24 5C25.1046 5 26 5.89543 26 7L26 11.4211Z" fill="#454747"/>
<path d="M42 11.8889C42 12.9935 42.8954 13.8889 44 13.8889H47.1111C48.2157 13.8889 49.1111 12.9935 49.1111 11.8889V7C49.1111 5.89543 48.2157 5 47.1111 5H44C42.8954 5 42 5.89543 42 7V11.8889ZM42 19C42 20.1046 42.8954 21 44 21H47.1111C48.2157 21 49.1111 20.1046 49.1111 19V17.6667C49.1111 16.5621 48.2157 15.6667 47.1111 15.6667H44C42.8954 15.6667 42 16.5621 42 17.6667V19ZM50.8889 19C50.8889 20.1046 51.7843 21 52.8889 21H56C57.1046 21 58 20.1046 58 19V14.1111C58 13.0065 57.1046 12.1111 56 12.1111H52.8889C51.7843 12.1111 50.8889 13.0065 50.8889 14.1111V19ZM52.8889 5C51.7843 5 50.8889 5.89543 50.8889 7V8.33333C50.8889 9.4379 51.7843 10.3333 52.8889 10.3333H56C57.1046 10.3333 58 9.4379 58 8.33333V7C58 5.89543 57.1046 5 56 5H52.8889Z" fill="#AAABAB"/>
</svg>
