<svg width="36" height="26" viewBox="0 0 36 26" fill="none" xmlns="http://www.w3.org/2000/svg">
<rect width="36" height="26" rx="6" fill="#C6C6C7"/>
<path d="M24.4 9.8H11.6C11.6 9.8 11.6 10 11.6 9.4C11.6 8.8 12 8.2 12.8 8.2C13.6 8.2 21.0937 8.2 23.2 8.2C24 8.2 24.4 8.8 24.4 9.4V9.8ZM21.6 5C20.8 5.00001 15.2 5.00002 14.4 5C13.6 4.99999 13.2 5.4 13.2 5.8C13.2 6.2 13.2 6.6 13.2 6.6H22.8C22.8 6.6 22.8 6.19999 22.8 5.8C22.8 5.40001 22.4 4.99999 21.6 5ZM26 13V19.4C26 20.284 25.284 21 24.4 21H11.6C10.716 21 10 20.284 10 19.4V13C10 12.116 10.716 11.4 11.6 11.4H24.4C25.284 11.4 26 12.116 26 13Z" fill="#454747"/>
</svg>
