<svg width="46" height="26" viewBox="0 0 46 26" fill="none" xmlns="http://www.w3.org/2000/svg">
<rect width="46" height="26" rx="6" fill="#EF6C00"/>
<path fill-rule="evenodd" clip-rule="evenodd" d="M23.9955 12.0045L23.9955 7.6904C23.9955 7.14058 23.5498 6.69486 23 6.69486C22.4501 6.69486 22.0044 7.14058 22.0044 7.69041L22.0044 12.0045L17.6904 12.0045C17.1405 12.0045 16.6948 12.4502 16.6948 13C16.6948 13.5498 17.1405 13.9955 17.6904 13.9955L22.0044 13.9955L22.0044 18.3096C22.0044 18.8594 22.4501 19.3051 23 19.3051C23.5498 19.3051 23.9955 18.8594 23.9955 18.3096L23.9955 13.9955L28.3096 13.9955C28.8594 13.9955 29.3051 13.5498 29.3051 13C29.3051 12.4502 28.8594 12.0045 28.3096 12.0045L23.9955 12.0045Z" fill="#FFF3E0"/>
<path d="M23.9955 7.6904L24.4955 7.6904L24.4955 7.6904L23.9955 7.6904ZM23.9955 12.0045H23.4955V12.5045L23.9955 12.5045L23.9955 12.0045ZM23 6.69486L23 6.19486L23 6.19486L23 6.69486ZM22.0044 7.69041L22.5044 7.6904L22.0044 7.69041ZM22.0044 12.0045V12.5045L22.5044 12.5045V12.0045L22.0044 12.0045ZM17.6904 12.0045V12.5045V12.0045ZM16.6948 13H17.1948H16.6948ZM17.6904 13.9955V13.4955V13.9955ZM22.0044 13.9955L22.5044 13.9955V13.4955L22.0044 13.4955V13.9955ZM22.0044 18.3096L22.5044 18.3096L22.0044 18.3096ZM23 19.3051L23 19.8051L23 19.8051L23 19.3051ZM23.9955 18.3096L24.4955 18.3096L24.4955 18.3096L23.9955 18.3096ZM23.9955 13.9955L23.9955 13.4955L23.4955 13.4955V13.9955H23.9955ZM28.3096 13.9955L28.3096 14.4955L28.3096 14.4955V13.9955ZM29.3051 13L29.8051 13V13L29.3051 13ZM28.3096 12.0045V11.5045L28.3096 11.5045L28.3096 12.0045ZM23.4955 7.6904V12.0045H24.4955V7.6904H23.4955ZM23 7.19486C23.2737 7.19486 23.4955 7.41672 23.4955 7.6904L24.4955 7.6904C24.4955 6.86444 23.8259 6.19486 23 6.19486L23 7.19486ZM22.5044 7.6904C22.5044 7.41672 22.7263 7.19486 23 7.19486V6.19486C22.174 6.19486 21.5044 6.86444 21.5044 7.69041L22.5044 7.6904ZM22.5044 12.0045V7.6904H21.5044L21.5044 12.0045L22.5044 12.0045ZM17.6904 12.5045H22.0044L22.0044 11.5045L17.6904 11.5045V12.5045ZM17.1948 13C17.1948 12.7263 17.4167 12.5045 17.6904 12.5045V11.5045C16.8644 11.5045 16.1948 12.174 16.1948 13H17.1948ZM17.6904 13.4955C17.4167 13.4955 17.1948 13.2737 17.1948 13H16.1948C16.1948 13.826 16.8644 14.4955 17.6904 14.4955V13.4955ZM22.0044 13.4955H17.6904V14.4955L22.0044 14.4955L22.0044 13.4955ZM22.5044 18.3096V13.9955L21.5044 13.9955L21.5044 18.3096H22.5044ZM23 18.8051C22.7263 18.8051 22.5044 18.5833 22.5044 18.3096L21.5044 18.3096C21.5044 19.1356 22.174 19.8051 23 19.8051V18.8051ZM23.4955 18.3096C23.4955 18.5833 23.2737 18.8051 23 18.8051L23 19.8051C23.8259 19.8051 24.4955 19.1356 24.4955 18.3096L23.4955 18.3096ZM23.4955 13.9955V18.3096H24.4955V13.9955H23.4955ZM28.3096 13.4955H23.9955V14.4955L28.3096 14.4955L28.3096 13.4955ZM28.8051 13C28.8051 13.2737 28.5832 13.4955 28.3096 13.4955L28.3096 14.4955C29.1355 14.4955 29.8051 13.826 29.8051 13L28.8051 13ZM28.3096 12.5045C28.5832 12.5045 28.8051 12.7263 28.8051 13L29.8051 13C29.8051 12.174 29.1355 11.5045 28.3096 11.5045L28.3096 12.5045ZM23.9955 12.5045H28.3096L28.3096 11.5045L23.9955 11.5045V12.5045Z" fill="#FFE0B2"/>
</svg>
